<?xml version="1.0" standalone="no"?>
<!DOCTYPE svg PUBLIC "-//W3C//DTD SVG 20010904//EN"
 "http://www.w3.org/TR/2001/REC-SVG-20010904/DTD/svg10.dtd">
<svg version="1.0" xmlns="http://www.w3.org/2000/svg"
 width="200.000000pt" height="200.000000pt" viewBox="0 0 200.000000 200.000000"
 preserveAspectRatio="xMidYMid meet">
<metadata>
Created by potrace 1.11, written by Peter Selinger 2001-2013
</metadata>
<g transform="translate(0.000000,200.000000) scale(0.100000,-0.100000)"
fill="#000000" stroke="none">
<path d="M728 1746 c-19 -13 -39 -25 -44 -27 -20 -9 -259 -153 -264 -160 -3
-3 -14 -9 -25 -13 -11 -4 -30 -15 -42 -25 -23 -19 -23 -22 -20 -215 2 -108 7
-199 10 -202 3 -4 2 -14 -3 -24 -5 -10 -7 -20 -4 -22 4 -5 11 -252 13 -518 l1
-65 44 -24 c25 -13 48 -22 52 -21 4 1 10 -3 13 -8 6 -9 32 -25 136 -82 28 -15
67 -37 88 -50 20 -12 37 -18 37 -13 0 4 4 3 8 -2 21 -30 86 -56 94 -37 2 4 21
17 43 29 22 11 39 26 37 33 -1 6 2 8 8 5 6 -4 29 5 50 19 22 14 42 26 44 26
15 0 124 79 118 85 -4 5 -1 5 6 0 9 -4 25 1 43 14 15 11 32 21 36 21 4 0 20
13 35 29 15 16 47 39 70 51 24 12 61 34 83 49 22 14 57 35 78 46 22 11 49 29
61 41 13 11 28 18 34 16 7 -2 12 1 12 6 0 6 9 14 20 17 11 4 17 11 14 17 -4 7
-2 8 4 4 6 -4 21 -2 32 4 19 10 20 20 19 110 -1 72 -4 98 -13 93 -8 -5 -8 -3
0 8 11 14 11 257 0 285 -3 8 0 14 6 14 7 0 6 5 -2 15 -11 13 -15 13 -21 3 -7
-10 -9 -10 -9 2 0 8 -21 28 -46 43 -37 22 -49 25 -60 16 -12 -9 -13 -9 -9 3 4
10 -24 31 -99 72 -58 31 -109 56 -112 56 -4 -1 -10 2 -13 7 -8 11 -67 46 -226
133 -33 18 -65 37 -71 41 -6 5 -14 6 -17 2 -4 -3 -7 -1 -7 5 0 7 -5 12 -11 12
-5 0 -26 11 -46 25 -20 13 -40 22 -45 19 -4 -3 -8 -1 -8 5 0 5 -16 15 -35 22
-19 7 -35 17 -35 21 0 15 -27 8 -62 -16z m-41 -141 c0 -8 -4 -12 -9 -9 -5 3
-6 10 -3 15 9 13 12 11 12 -6z m3 -41 c0 -8 -19 -13 -24 -6 -3 5 1 9 9 9 8 0
15 -2 15 -3z m84 -2 c3 -5 -1 -9 -9 -9 -8 0 -12 4 -9 9 3 4 7 8 9 8 2 0 6 -4
9 -8z m-169 -31 c3 -5 2 -12 -3 -15 -5 -3 -9 1 -9 9 0 17 3 19 12 6z m-81 -49
c3 -5 -1 -9 -9 -9 -8 0 -12 4 -9 9 3 4 7 8 9 8 2 0 6 -4 9 -8z m216 2 c0 -8
-19 -13 -24 -6 -3 5 1 9 9 9 8 0 15 -2 15 -3z m-293 -49 c0 -8 -4 -12 -9 -9
-5 3 -6 10 -3 15 9 13 12 11 12 -6z m80 0 c0 -8 -4 -12 -9 -9 -5 3 -6 10 -3
15 9 13 12 11 12 -6z m243 -31 c0 -8 -19 -13 -24 -6 -3 5 1 9 9 9 8 0 15 -2
15 -3z m570 0 c0 -8 -19 -13 -24 -6 -3 5 1 9 9 9 8 0 15 -2 15 -3z m-850 -28
c0 -2 -8 -10 -17 -17 -16 -13 -17 -12 -4 4 13 16 21 21 21 13z m210 -10 c0 -2
-8 -10 -17 -17 -16 -13 -17 -12 -4 4 13 16 21 21 21 13z m-335 -45 c3 -5 2
-12 -3 -15 -5 -3 -9 1 -9 9 0 17 3 19 12 6z m405 3 c0 -8 -19 -13 -24 -6 -3 5
1 9 9 9 8 0 15 -2 15 -3z m594 -2 c3 -5 -1 -9 -9 -9 -8 0 -12 4 -9 9 3 4 7 8
9 8 2 0 6 -4 9 -8z m123 -47 c0 -8 -4 -12 -9 -9 -5 3 -6 10 -3 15 9 13 12 11
12 -6z m80 -150 c0 -8 -4 -12 -9 -9 -5 3 -6 10 -3 15 9 13 12 11 12 -6z m-2
-164 c3 -5 2 -12 -3 -15 -5 -3 -9 1 -9 9 0 17 3 19 12 6z m-1164 -174 c-10 -9
-11 -8 -5 6 3 10 9 15 12 12 3 -3 0 -11 -7 -18z m1200 0 c-10 -9 -11 -8 -5 6
3 10 9 15 12 12 3 -3 0 -11 -7 -18z m-951 -23 c0 -8 -19 -13 -24 -6 -3 5 1 9
9 9 8 0 15 -2 15 -3z m35 -3 c3 -5 2 -12 -3 -15 -5 -3 -9 1 -9 9 0 17 3 19 12
6z m-240 -30 c3 -5 2 -12 -3 -15 -5 -3 -9 1 -9 9 0 17 3 19 12 6z m15 -47 c0
-8 -19 -13 -24 -6 -3 5 1 9 9 9 8 0 15 -2 15 -3z m144 -82 c3 -5 -1 -9 -9 -9
-8 0 -12 4 -9 9 3 4 7 8 9 8 2 0 6 -4 9 -8z m90 0 c3 -5 -1 -9 -9 -9 -8 0 -12
4 -9 9 3 4 7 8 9 8 2 0 6 -4 9 -8z m633 -7 c0 -8 -4 -12 -9 -9 -5 3 -6 10 -3
15 9 13 12 11 12 -6z m-557 -19 c0 -2 -8 -10 -17 -17 -16 -13 -17 -12 -4 4 13
16 21 21 21 13z m-166 -54 c3 -5 -1 -9 -9 -9 -8 0 -12 4 -9 9 3 4 7 8 9 8 2 0
6 -4 9 -8z m90 0 c3 -5 -1 -9 -9 -9 -8 0 -12 4 -9 9 3 4 7 8 9 8 2 0 6 -4 9
-8z m153 -37 c0 -8 -4 -12 -9 -9 -5 3 -6 10 -3 15 9 13 12 11 12 -6z m158 -4
c3 -5 2 -12 -3 -15 -5 -3 -9 1 -9 9 0 17 3 19 12 6z m80 -30 c3 -5 2 -12 -3
-15 -5 -3 -9 1 -9 9 0 17 3 19 12 6z m-361 -9 c3 -5 -1 -9 -9 -9 -8 0 -12 4
-9 9 3 4 7 8 9 8 2 0 6 -4 9 -8z m126 2 c0 -8 -19 -13 -24 -6 -3 5 1 9 9 9 8
0 15 -2 15 -3z m84 -2 c3 -5 -1 -9 -9 -9 -8 0 -12 4 -9 9 3 4 7 8 9 8 2 0 6
-4 9 -8z"/>
</g>
</svg>
